{"accessors":[{"bufferView":0,"componentType":5123,"count":17280,"max":[4001],"min":[0],"type":"SCALAR"},{"bufferView":1,"componentType":5126,"count":4002,"max":[27.475988388061523,47.41394805908203,27.47579002380371],"min":[-27.476001739501953,-47.391273498535156,-27.47620391845703],"type":"VEC3"},{"bufferView":2,"componentType":5126,"count":4002,"max":[0.9983368515968323,0.9999999403953552,0.9983368515968323],"min":[-0.998336911201477,-1.0,-0.9983368515968323],"type":"VEC3"},{"bufferView":3,"componentType":5126,"count":4002,"max":[0.9969570636749268,0.9967510551214218],"min":[-0.00770702725276351,-0.0019240379333496094],"type":"VEC2"},{"bufferView":4,"componentType":5123,"count":2880,"max":[1983],"min":[0],"type":"SCALAR"},{"bufferView":5,"componentType":5126,"count":1984,"max":[0.9999997019767761,1.0,0.9999994039535522],"min":[-0.9999990463256836,-1.0,-0.9999987483024597],"type":"VEC3"},{"bufferView":6,"componentType":5126,"count":1984,"max":[0.9904384613037109,0.99513840675354,0.9904384613037109],"min":[-0.9904386401176453,-0.99513840675354,-0.9904389381408691],"type":"VEC3"},{"bufferView":7,"componentType":5126,"count":1984,"max":[1.0000001192092896,1.0],"min":[0.0,0.0],"type":"VEC2"},{"bufferView":8,"componentType":5123,"count":2880,"max":[1983],"min":[0],"type":"SCALAR"},{"bufferView":9,"componentType":5126,"count":1984,"max":[0.9999997019767761,1.0,0.9999994039535522],"min":[-0.9999990463256836,-1.0,-0.9999987483024597],"type":"VEC3"},{"bufferView":10,"componentType":5126,"count":1984,"max":[0.9904384613037109,0.99513840675354,0.9904384613037109],"min":[-0.9904386401176453,-0.99513840675354,-0.9904389381408691],"type":"VEC3"},{"bufferView":11,"componentType":5126,"count":1984,"max":[1.0000001192092896,1.0],"min":[0.0,0.0],"type":"VEC2"},{"bufferView":12,"componentType":5123,"count":2880,"max":[1983],"min":[0],"type":"SCALAR"},{"bufferView":13,"componentType":5126,"count":1984,"max":[0.9999997019767761,1.0,0.9999994039535522],"min":[-0.9999990463256836,-1.0,-0.9999987483024597],"type":"VEC3"},{"bufferView":14,"componentType":5126,"count":1984,"max":[0.9904384613037109,0.99513840675354,0.9904384613037109],"min":[-0.9904386401176453,-0.99513840675354,-0.9904389381408691],"type":"VEC3"},{"bufferView":15,"componentType":5126,"count":1984,"max":[1.0000001192092896,1.0],"min":[0.0,0.0],"type":"VEC2"},{"bufferView":16,"componentType":5123,"count":2880,"max":[1983],"min":[0],"type":"SCALAR"},{"bufferView":17,"componentType":5126,"count":1984,"max":[0.9999997019767761,1.0,0.9999994039535522],"min":[-0.9999990463256836,-1.0,-0.9999987483024597],"type":"VEC3"},{"bufferView":18,"componentType":5126,"count":1984,"max":[0.9904384613037109,0.99513840675354,0.9904384613037109],"min":[-0.9904386401176453,-0.99513840675354,-0.9904389381408691],"type":"VEC3"},{"bufferView":19,"componentType":5126,"count":1984,"max":[1.0000001192092896,1.0],"min":[0.0,0.0],"type":"VEC2"},{"bufferView":20,"componentType":5126,"count":101,"max":[4.166666666666667],"min":[0.0],"type":"SCALAR"},{"bufferView":21,"componentType":5126,"count":101,"max":[0.0,1.0,-0.0,1.0],"min":[0.0,-3.2584136988589307e-07,-0.0,-1.0],"type":"VEC4"}],"animations":[{"channels":[{"sampler":0,"target":{"node":1,"path":"rotation"}}],"extensions":{"S8S_v3d_animation_data":{"auto":false,"loop":"REPEAT","offset":0.0,"repeatCount":1.0,"repeatInfinite":true}},"name":"Can","samplers":[{"input":20,"interpolation":"LINEAR","output":21}]}],"asset":{"generator":"Soft8Soft Verge3D for Blender add-on","version":"2.0"},"bufferViews":[{"buffer":0,"byteLength":34560,"byteOffset":0,"target":34963},{"buffer":0,"byteLength":48024,"byteOffset":34560,"target":34962},{"buffer":0,"byteLength":48024,"byteOffset":82584,"target":34962},{"buffer":0,"byteLength":32016,"byteOffset":130608,"target":34962},{"buffer":0,"byteLength":5760,"byteOffset":162624,"target":34963},{"buffer":0,"byteLength":23808,"byteOffset":168384,"target":34962},{"buffer":0,"byteLength":23808,"byteOffset":192192,"target":34962},{"buffer":0,"byteLength":15872,"byteOffset":216000,"target":34962},{"buffer":0,"byteLength":5760,"byteOffset":231872,"target":34963},{"buffer":0,"byteLength":23808,"byteOffset":237632,"target":34962},{"buffer":0,"byteLength":23808,"byteOffset":261440,"target":34962},{"buffer":0,"byteLength":15872,"byteOffset":285248,"target":34962},{"buffer":0,"byteLength":5760,"byteOffset":301120,"target":34963},{"buffer":0,"byteLength":23808,"byteOffset":306880,"target":34962},{"buffer":0,"byteLength":23808,"byteOffset":330688,"target":34962},{"buffer":0,"byteLength":15872,"byteOffset":354496,"target":34962},{"buffer":0,"byteLength":5760,"byteOffset":370368,"target":34963},{"buffer":0,"byteLength":23808,"byteOffset":376128,"target":34962},{"buffer":0,"byteLength":23808,"byteOffset":399936,"target":34962},{"buffer":0,"byteLength":15872,"byteOffset":423744,"target":34962},{"buffer":0,"byteLength":404,"byteOffset":439616},{"buffer":0,"byteLength":1616,"byteOffset":440020}],"buffers":[{"byteLength":441636,"uri":"CanModelDisplay.bin"}],"cameras":[{"extensions":{"S8S_v3d_camera_data":{"controls":"ORBIT","enablePan":true,"moveSpeed":1,"orbitMaxDistance":10000,"orbitMaxPolarAngle":3.141592653589793,"orbitMinDistance":0,"orbitMinPolarAngle":0,"orbitTarget":[0.8151445388793945,-3.377169132232666,-0.7236205339431763],"rotateSpeed":1,"viewportFitInitialAspect":1,"viewportFitType":"VERTICAL"}},"name":"__DEFAULT__","perspective":{"aspectRatio":1,"yfov":0.7853981633974483,"zfar":1000.0,"znear":0.009999999776482582},"type":"perspective"}],"extensionsUsed":["S8S_v3d_texture_data","S8S_v3d_material_data","S8S_v3d_camera_data","S8S_v3d_mesh_data","S8S_v3d_node_data","S8S_v3d_animation_data","S8S_v3d_scene_data"],"images":[{"uri":"CokeTexture.png"},{"uri":"fanta_texture.png"},{"uri":"pepper_texture.png"},{"uri":"SpriteTexture.png"},{"uri":"studio_small_03_4k.hdr"}],"materials":[{"extensions":{"S8S_v3d_material_data":{"gtaoVisible":true,"materialIndex":0,"nodeGraph":{"edges":[{"fromNode":2,"fromOutput":0,"toInput":0,"toNode":0},{"fromNode":1,"fromOutput":0,"toInput":0,"toNode":2}],"nodes":[{"inputs":[[0,0,0,0],[0,0,0,0],[0.0,0.0,0.0]],"is_active_output":true,"name":"Material Output","outputs":[],"type":"OUTPUT_MATERIAL_BL"},{"inputs":[[0.0,0.0,0.0]],"is_active_output":false,"name":"Image Texture","outputs":[[0.0,0.0,0.0,0.0],0.0],"projection":"FLAT","projectionBlend":0.0,"texture":0,"type":"TEX_IMAGE_BL"},{"inputs":[[0.5879999995231628,0.5879999995231628,0.5879999995231628,1.0],0.0,[1.0,0.20000000298023224,0.10000000149011612],[0.800000011920929,0.800000011920929,0.800000011920929,1.0],1.399999976158142,0.0,0.20909085869789124,0.08636364340782166,0.0,0.630954384803772,0.0,0.0,0.0,0.5,0.0,0.029999999329447746,1.5,0.0,0.0,[0.0,0.0,0.0,1.0],1.0,1.0,[0.0,0.0,0.0],[0.0,0.0,0.0],[0.0,0.0,0.0]],"is_active_output":false,"name":"Principled BSDF","outputs":[[0,0,0,0]],"type":"BSDF_PRINCIPLED_BL"}]},"useCastShadows":true}},"name":"Coke_Material"},{"extensions":{"S8S_v3d_material_data":{"gtaoVisible":true,"materialIndex":0,"nodeGraph":{"edges":[{"fromNode":2,"fromOutput":0,"toInput":0,"toNode":1},{"fromNode":1,"fromOutput":0,"toInput":0,"toNode":0}],"nodes":[{"inputs":[[0,0,0,0],[0,0,0,0],[0.0,0.0,0.0]],"is_active_output":true,"name":"Material Output","outputs":[],"type":"OUTPUT_MATERIAL_BL"},{"inputs":[[0.5879999995231628,0.5879999995231628,0.5879999995231628,1.0],0.0,[1.0,0.20000000298023224,0.10000000149011612],[0.800000011920929,0.800000011920929,0.800000011920929,1.0],1.399999976158142,0.0,0.20909085869789124,0.08636364340782166,0.0,0.630954384803772,0.0,0.0,0.0,0.5,0.0,0.029999999329447746,1.5,0.0,0.0,[0.0,0.0,0.0,1.0],1.0,1.0,[0.0,0.0,0.0],[0.0,0.0,0.0],[0.0,0.0,0.0]],"is_active_output":false,"name":"Principled BSDF.001","outputs":[[0,0,0,0]],"type":"BSDF_PRINCIPLED_BL"},{"inputs":[[0.0,0.0,0.0]],"is_active_output":false,"name":"Image Texture","outputs":[[0.0,0.0,0.0,0.0],0.0],"projection":"FLAT","projectionBlend":0.0,"texture":1,"type":"TEX_IMAGE_BL"}]},"useCastShadows":true}},"name":"Fanta_Material"},{"extensions":{"S8S_v3d_material_data":{"gtaoVisible":true,"materialIndex":0,"nodeGraph":{"edges":[{"fromNode":2,"fromOutput":0,"toInput":0,"toNode":0},{"fromNode":1,"fromOutput":0,"toInput":0,"toNode":2}],"nodes":[{"inputs":[[0,0,0,0],[0,0,0,0],[0.0,0.0,0.0]],"is_active_output":true,"name":"Material Output","outputs":[],"type":"OUTPUT_MATERIAL_BL"},{"inputs":[[0.0,0.0,0.0]],"is_active_output":false,"name":"Image Texture","outputs":[[0.0,0.0,0.0,0.0],0.0],"projection":"FLAT","projectionBlend":0.0,"texture":2,"type":"TEX_IMAGE_BL"},{"inputs":[[0.5879999995231628,0.5879999995231628,0.5879999995231628,1.0],0.0,[1.0,0.20000000298023224,0.10000000149011612],[0.800000011920929,0.800000011920929,0.800000011920929,1.0],1.399999976158142,0.0,0.20909085869789124,0.08636364340782166,0.0,0.630954384803772,0.0,0.0,0.0,0.5,0.0,0.029999999329447746,1.5,0.0,0.0,[0.0,0.0,0.0,1.0],1.0,1.0,[0.0,0.0,0.0],[0.0,0.0,0.0],[0.0,0.0,0.0]],"is_active_output":false,"name":"Principled BSDF","outputs":[[0,0,0,0]],"type":"BSDF_PRINCIPLED_BL"}]},"useCastShadows":true}},"name":"Pepper_Material"},{"extensions":{"S8S_v3d_material_data":{"gtaoVisible":true,"materialIndex":0,"nodeGraph":{"edges":[{"fromNode":2,"fromOutput":0,"toInput":0,"toNode":1},{"fromNode":1,"fromOutput":0,"toInput":0,"toNode":0}],"nodes":[{"inputs":[[0,0,0,0],[0,0,0,0],[0.0,0.0,0.0]],"is_active_output":true,"name":"Material Output","outputs":[],"type":"OUTPUT_MATERIAL_BL"},{"inputs":[[0.5879999995231628,0.5879999995231628,0.5879999995231628,1.0],0.0,[1.0,0.20000000298023224,0.10000000149011612],[0.800000011920929,0.800000011920929,0.800000011920929,1.0],1.399999976158142,0.0,0.20909085869789124,0.08636364340782166,0.0,0.630954384803772,0.0,0.0,0.0,0.5,0.0,0.029999999329447746,1.5,0.0,0.0,[0.0,0.0,0.0,1.0],1.0,1.0,[0.0,0.0,0.0],[0.0,0.0,0.0],[0.0,0.0,0.0]],"is_active_output":false,"name":"Principled BSDF.001","outputs":[[0,0,0,0]],"type":"BSDF_PRINCIPLED_BL"},{"inputs":[[0.0,0.0,0.0]],"is_active_output":false,"name":"Image Texture","outputs":[[0.0,0.0,0.0,0.0],0.0],"projection":"FLAT","projectionBlend":0.0,"texture":3,"type":"TEX_IMAGE_BL"}]},"useCastShadows":true}},"name":"Sprite_Material"},{"extensions":{"S8S_v3d_material_data":{"gtaoVisible":true,"materialIndex":0,"nodeGraph":{"edges":[{"fromNode":1,"fromOutput":0,"toInput":1,"toNode":3},{"fromNode":2,"fromOutput":0,"toInput":0,"toNode":1},{"fromNode":4,"fromOutput":0,"toInput":0,"toNode":3},{"fromNode":5,"fromOutput":0,"toInput":2,"toNode":3},{"fromNode":3,"fromOutput":0,"toInput":0,"toNode":0}],"nodes":[{"inputs":[[0,0,0,0],[0,0,0,0]],"is_active_output":true,"name":"World Output","outputs":[],"type":"OUTPUT_WORLD_BL"},{"inputs":[[0.05087608844041824,0.05087608844041824,0.05087608844041824,1.0],1.0],"is_active_output":false,"name":"Background.001","outputs":[[0,0,0,0]],"type":"BACKGROUND_BL"},{"inputs":[[0.0,0.0,0.0]],"is_active_output":false,"name":"Environment Texture","outputs":[[0.0,0.0,0.0,0.0]],"projection":"EQUIRECTANGULAR","texture":4,"type":"TEX_ENVIRONMENT_BL"},{"inputs":[0.5,[0,0,0,0],[0,0,0,0]],"is_active_output":false,"name":"Mix Shader","outputs":[[0,0,0,0]],"type":"MIX_SHADER_BL"},{"inputs":[],"is_active_output":false,"name":"Light Path","outputs":[0.0,0.0,0.0,0.0,0.0,0.0,0.0,0.0,0.0,0.0,0.0,0.0,0.0],"type":"LIGHT_PATH_BL"},{"inputs":[[0.05087608844041824,0.05087608844041824,0.05087608844041824,1.0],1.0],"is_active_output":false,"name":"Background","outputs":[[0,0,0,0]],"type":"BACKGROUND_BL"}]},"useCastShadows":true}},"name":"Verge3D_Environment_World"}],"meshes":[{"extensions":{"S8S_v3d_mesh_data":{"colorLayers":{},"uvLayers":{"UVMap":"TEXCOORD_0"}}},"name":"Can","primitives":[{"attributes":{"NORMAL":2,"POSITION":1,"TEXCOORD_0":3},"indices":0,"material":0,"mode":4}]},{"extensions":{"S8S_v3d_mesh_data":{"colorLayers":{},"uvLayers":{"UVMap":"TEXCOORD_0"}}},"name":"Sphere","primitives":[{"attributes":{"NORMAL":6,"POSITION":5,"TEXCOORD_0":7},"indices":4,"material":0,"mode":4}]},{"extensions":{"S8S_v3d_mesh_data":{"colorLayers":{},"uvLayers":{"UVMap":"TEXCOORD_0"}}},"name":"Sphere.001","primitives":[{"attributes":{"NORMAL":10,"POSITION":9,"TEXCOORD_0":11},"indices":8,"material":3,"mode":4}]},{"extensions":{"S8S_v3d_mesh_data":{"colorLayers":{},"uvLayers":{"UVMap":"TEXCOORD_0"}}},"name":"Sphere.002","primitives":[{"attributes":{"NORMAL":14,"POSITION":13,"TEXCOORD_0":15},"indices":12,"material":2,"mode":4}]},{"extensions":{"S8S_v3d_mesh_data":{"colorLayers":{},"uvLayers":{"UVMap":"TEXCOORD_0"}}},"name":"Sphere.003","primitives":[{"attributes":{"NORMAL":18,"POSITION":17,"TEXCOORD_0":19},"indices":16,"material":1,"mode":4}]}],"nodes":[{"extensions":{"S8S_v3d_node_data":{"frustumCulling":true,"groupNames":["Materials"],"hidden":true,"hidpiCompositing":false,"objectColor":[1.0,1.0,1.0],"objectIndex":0,"renderOrder":0,"useShadows":true}},"mesh":3,"name":"Pepper_Material","translation":[29.884929656982422,85.25053405761719,-0.0]},{"extensions":{"S8S_v3d_node_data":{"frustumCulling":true,"groupNames":["Can"],"hidden":false,"hidpiCompositing":false,"objectColor":[1.0,1.0,1.0],"objectIndex":0,"renderOrder":0,"useShadows":true}},"mesh":0,"name":"Can"},{"extensions":{"S8S_v3d_node_data":{"frustumCulling":true,"groupNames":["Materials"],"hidden":true,"hidpiCompositing":false,"objectColor":[1.0,1.0,1.0],"objectIndex":0,"renderOrder":0,"useShadows":true}},"mesh":1,"name":"Coke_Material","translation":[-26.321744918823242,85.25053405761719,-0.0]},{"extensions":{"S8S_v3d_node_data":{"frustumCulling":true,"groupNames":["Materials"],"hidden":true,"hidpiCompositing":false,"objectColor":[1.0,1.0,1.0],"objectIndex":0,"renderOrder":0,"useShadows":true}},"mesh":2,"name":"Sprite_Material","translation":[-12.843238830566406,85.25053405761719,-0.0]},{"extensions":{"S8S_v3d_node_data":{"frustumCulling":true,"groupNames":["Materials"],"hidden":true,"hidpiCompositing":false,"objectColor":[1.0,1.0,1.0],"objectIndex":0,"renderOrder":0,"useShadows":true}},"mesh":4,"name":"Fanta_Material","translation":[6.002220153808594,85.25053405761719,-0.0]},{"camera":0,"name":"__DEFAULT_CAMERA__","rotation":[-0.25881895422935486,0.0,0.0,0.9659258723258972],"scale":[1.0,0.9999997615814209,0.9999997615814209],"translation":[0.8151444792747498,135.1826629638672,239.26913452148438]}],"samplers":[{}],"scene":0,"scenes":[{"extensions":{"S8S_v3d_scene_data":{"aaMethod":"AUTO","iblEnvironmentMode":"PMREM","physicallyCorrectLights":true,"pmremMaxTileSize":512,"shadowMap":{"esmDistanceScale":1.0,"renderReverseSided":false,"renderSingleSided":true,"type":"PCFPOISSON"},"toneMapping":{"type":"filmicBlender"},"useHDR":true,"worldMaterial":4}},"extras":{"animFrameRate":24,"coordSystem":"Z_UP_RIGHT"},"name":"Scene","nodes":[1,2,3,0,4,5]}],"textures":[{"extensions":{"S8S_v3d_texture_data":{"colorSpace":"srgb"}},"name":"CokeTexture.png","sampler":0,"source":0},{"extensions":{"S8S_v3d_texture_data":{"colorSpace":"srgb"}},"name":"fanta_texture.png","sampler":0,"source":1},{"extensions":{"S8S_v3d_texture_data":{"colorSpace":"srgb"}},"name":"pepper_texture.png","sampler":0,"source":2},{"extensions":{"S8S_v3d_texture_data":{"colorSpace":"srgb"}},"name":"SpriteTexture.png","sampler":0,"source":3},{"extensions":{"S8S_v3d_texture_data":{"colorSpace":"linear"}},"name":"studio_small_03_4k.hdr","sampler":0,"source":4}]}
